<svg xmlns="http://www.w3.org/2000/svg" style="width: 100px; height: 99px;" version="1.1" data-original-aspect-ratio="1.0013206083695924"><g transform="translate(-19.5114 -17.2911)"><path d="M 115.751 32.2645 l -12.3416 -12.3436 c -4.12026 -4.12097 -12.1374 -3.28957 -17.1558 1.72953 l -5.22923 5.23328 c -0.415695 0.416368 -0.415695 1.0903 0 1.50666 l 26.2607 26.2572 c 0.415695 0.4157 1.0903 0.4157 1.50666 0 l 5.23324 -5.22928 c 2.44349 -2.44549 4.00282 -5.51753 4.39049 -8.65764 C 118.832 37.415 117.885 34.395 115.751 32.2645 Z" /><path d="M 29.8692 78.0382 c -0.469076 0.469081 -0.808704 1.05226 -0.985527 1.69216 l -9.3168 33.7625 c -0.168816 0.732646 0.05338 1.49999 0.581842 2.02846 c 0.415028 0.413031 0.970847 0.63923 1.5447 0.63923 c 0.162143 0 0.323614 -0.016681 0.483088 -0.055382 l 33.7707 -9.32156 c 0.639894 -0.176823 1.22241 -0.515788 1.69149 -0.984869 l 35.3461 -35.3405 c 1.49866 -1.49799 1.49866 -3.92747 0 -5.42613 l -22.3417 -22.3417 c -1.49799 -1.49799 -3.92742 -1.49799 -5.42541 0 L 29.8692 78.0382 Z" /><path d="M 71.7402 37.6159 l 26.3181 26.3186 c 0.400349 0.400354 1.04893 0.399686 1.44861 0 l 4.72145 -4.72483 c 0.399681 -0.400354 0.399681 -1.04826 0 -1.44861 l -26.3187 -26.3152 c -0.399681 -0.399686 -1.04826 -0.399686 -1.44861 0 l -4.72079 4.72084 C 71.3405 36.5676 71.3405 37.2162 71.7402 37.6159 Z" /></g></svg>