<svg xmlns="http://www.w3.org/2000/svg" style="width: 97px; height: 91px;" version="1.1" data-original-aspect-ratio="1.0775613495797822"><g transform="translate(45.7649 9.54742)"><path d="M 49.4417 67.514 c -1.29571 -3.81895 -3.61436 -7.70614 -7.02414 -9.95659 c -6.61496 -4.36451 -14.2529 -6.68321 -21.6862 -9.20644 c -1.77308 -0.613764 -3.61436 -1.29571 -5.25105 -2.25045 c -1.4321 -0.886546 -1.97767 -2.65962 -2.31865 -4.22812 c -0.136391 -0.818351 -0.272782 -1.70489 -0.272782 -2.52323 C 18.2082 31.9837 21.8226 19.9813 21.8226 10.0929 C 21.8226 -5.25105 13.0935 -9.54742 2.38684 -9.54742 c -10.7067 0 -19.4357 4.29632 -19.4357 19.6403 c 0 10.2293 3.81895 22.7091 9.54737 30.006 c -0.068195 0.545569 -0.136391 1.15932 -0.204586 1.70489 c -0.340977 1.5685 -0.886541 3.34158 -2.31865 4.15993 c -1.63669 0.954742 -3.47797 1.5685 -5.25105 2.25045 c -7.43331 2.52323 -15.0712 4.70549 -21.6862 9.07005 c -3.40978 2.25045 -5.72842 6.41043 -7.02414 10.2293 c -1.29571 3.95534 -1.84128 8.93366 -1.77308 12.9571 H 51.2148 C 51.3512 76.4477 50.8056 71.5376 49.4417 67.514 L 49.4417 67.514 Z" /></g></svg>