<svg xmlns="http://www.w3.org/2000/svg" style="width: 110px; height: 131px;" version="1.1" data-original-aspect-ratio="0.833696426772715"><g transform="translate(-40.527 -29.6819)"><path d="M 138.801 29.6819 H 51.4675 c -5.99345 0 -10.9405 4.85183 -10.9405 10.9405 v 109.119 c 0 5.99346 4.85183 10.9405 10.9405 10.9405 h 87.3332 c 5.99345 0 10.9405 -4.85183 10.9405 -10.9405 V 40.5273 C 149.742 34.5338 144.795 29.6819 138.801 29.6819 Z M 95.1342 33.7727 c 1.14161 0 1.99782 0.951343 1.99782 1.99782 c 0 1.14161 -0.951342 1.99782 -1.99782 1.99782 s -1.99782 -0.951343 -1.99782 -1.99782 C 93.1364 34.7241 93.9926 33.7727 95.1342 33.7727 Z M 104.933 155.925 H 85.3354 c -0.761073 0 -1.33188 -0.570805 -1.33188 -1.33188 c 0 -0.761074 0.570804 -1.33188 1.33188 -1.33188 h 19.5026 c 0.761073 0 1.33188 0.570805 1.33188 1.33188 C 106.265 155.354 105.599 155.925 104.933 155.925 Z M 139.657 143.558 c 0 2.47349 -1.99782 4.56639 -4.56643 4.56639 H 55.0826 c -2.47349 0 -4.56643 -1.99782 -4.56643 -4.56639 V 46.711 c 0 -2.47349 1.99782 -4.56639 4.56643 -4.56639 h 80.103 c 2.47349 0 4.56643 1.99782 4.56643 4.56639 V 143.558 Z" /><path d="M 54.9875 46.711 h 80.3884 v 96.7516 H 54.9875 V 46.711 Z" /></g></svg>