<svg xmlns="http://www.w3.org/2000/svg" style="width: 94px; height: 106px;" version="1.1" data-original-aspect-ratio="0.8930867548316929"><g transform="translate(-13.0436 -4.60264)"><path d="M 105.811 70.4423 l -8.84215 -15.329 c -0.744337 -1.28371 -2.11794 -2.07719 -3.60662 -2.07719 c -1.48208 0 -2.85569 0.79348 -3.60002 2.07719 l -9.21312 15.9607 c -0.744337 1.28791 -0.744337 3.38667 0 4.67458 c 0.74194 1.28791 2.11375 2.60158 3.60182 2.60158 h 4.33118 c -2.62556 13.1032 -11.1261 19.8382 -24.2293 21.5654 V 34.6734 h 8.1086 c 2.29893 0 4.15858 -2.073 4.15858 -4.36773 s -1.85964 -4.36773 -4.15858 -4.36773 h -6.97771 c 3.69531 -1.8962 5.93731 -5.65804 5.93731 -10.0024 c 0 -6.24835 -5.13306 -11.3329 -11.382 -11.3329 c -6.24835 0 -11.4629 5.0845 -11.4629 11.3329 c 0 4.34436 2.22042 8.1062 5.91214 10.0024 H 47.4104 c -2.29234 0 -4.15678 2.073 -4.15678 4.36773 s 1.86384 4.36773 4.15678 4.36773 h 8.108 v 65.2415 c -13.1032 -1.7272 -21.6013 -8.46219 -24.2263 -21.5654 h 4.33297 c 0.029965 0 0.053937 0 0.083303 0 c 2.29714 0 4.15858 -2.37984 4.15858 -4.67458 c 0 -1.04099 -0.377562 -2.24799 -1.00443 -2.97315 L 30.0168 55.2451 c -0.742539 -1.28371 -2.11375 -2.14551 -3.60002 -2.14551 c -1.48867 0 -2.85749 0.759319 -3.60362 2.04783 l -9.21312 15.9391 c -0.74194 1.28791 -0.74194 3.38248 0 4.67038 c 0.74194 1.28851 2.11555 2.59379 3.60182 2.59379 h 5.63646 c 3.04567 17.4703 18.4754 31.252 37.0502 31.252 c 18.5737 0 34.0076 -13.781 37.0502 -31.252 h 5.63706 c 0.027568 0 0.055735 0 0.080906 0 c 2.29893 0 4.16097 -2.37984 4.16097 -4.67458 C 106.818 72.6346 106.44 71.1675 105.811 70.4423 Z M 59.9305 20.9421 c -2.68069 0 -4.85436 -2.17308 -4.85436 -4.85437 c 0 -2.68069 2.17308 -4.85437 4.85436 -4.85437 c 2.68069 0 4.85436 2.17368 4.85436 4.85437 C 64.7849 18.7684 62.6112 20.9421 59.9305 20.9421 Z" /></g></svg>